<svg class="reference-art reference-art--landscape" viewBox="0 0 1024 409" width="1024" height="409" xmlns="http://www.w3.org/2000/svg" aria-hidden="true" focusable="false">
  <defs>
    <filter id="solar-corona-glow" x="-30%" y="-30%" width="160%" height="160%">
      <feGaussianBlur stdDeviation="12" result="blur" />
      <feComposite in="SourceGraphic" in2="blur" operator="over" />
    </filter>
  </defs>

  <!-- 1. Background Tone (Transparent to adopt paper background) -->
  <rect width="1024" height="409" fill="transparent" />

  <!-- 2. Solar Celestial Orb Layer (Positioned behind mountains) -->
  <g class="svg-sun-layer" style="transform-origin: 547px 156px;">
    <!-- Corona Warm Atmosphere Glow -->
    <circle class="svg-sun-corona" cx="547" cy="156" r="76" fill="#e7ac43" opacity="0.25" filter="url(#solar-corona-glow)" />
    <circle class="svg-sun-mid" cx="547" cy="156" r="66" fill="#e7ac43" opacity="0.45" />
    <!-- Core Golden Sun -->
    <circle class="svg-sun-core" cx="547" cy="156" r="60.3" fill="#e7ac43" />
  </g>

  <!-- 3. Full High-Resolution Vector Ink Paths (Mountain ridges, Trees & Technical Engraving) -->
  <g class="svg-ink-layer" fill="#172724" fill-rule="evenodd">
    <path d="" fill="#000000" transform="translate(0,0)"/><path d="" fill="#000000" transform="translate(0,0)"/><path d="M0 0 C0.66 0 1.32 0 2 0 C2 0.66 2 1.32 2 2 C1.34 2 0.68 2 0 2 C0 1.34 0 0.68 0 0 Z " fill="#000000" transform="translate(638,118)"/><path d="" fill="#000000" transform="translate(0,0)"/><path d="M0 0 C0.66 0 1.32 0 2 0 C2 0.66 2 1.32 2 2 C1.34 2 0.68 2 0 2 C0 1.34 0 0.68 0 0 Z " fill="#000000" transform="translate(251,127)"/><path d="" fill="#000000" transform="translate(0,0)"/><path d="" fill="#000000" transform="translate(0,0)"/><path d="M0 0 C0.66 0 1.32 0 2 0 C2 0.66 2 1.32 2 2 C1.34 2 0.68 2 0 2 C0 1.34 0 0.68 0 0 Z " fill="#000000" transform="translate(313,175)"/><path d="M0 0 C1.32 0.66 2.64 1.32 4 2 C3.67 2.5 3.67 2.5 2 5 C3.32 5.33 4.64 5.66 6 6 C6.66 5.34 7.32 4.68 8 4 C9.32 4 10.64 4 12 4 C11.67 5.65 11.34 7.3 11 9 C9.68 9.99 8.36 10.98 7 12 C3.18 12.35 0.65 11.62 -2.76 10.07 C-3.51 9.72 -4.26 9.36 -5 9 C-5.33 9.66 -5.66 10.32 -6 11 C-6.16 11.05 -6.16 11.05 -6.95 11.33 C-9.66 12.34 -11.78 13.48 -14.04 15.27 C-17.11 17.6 -20.24 18.37 -24 19 C-25.32 18.01 -26.64 17.02 -28 16 C-27.67 14.35 -27.34 12.7 -27 11 C-25.68 10.67 -24.36 10.34 -23 10 C-22.67 10.33 -22.34 10.66 -22 11 C-19.69 11.33 -17.38 11.66 -15 12 C-14.34 10.68 -13.68 9.36 -13 8 C-12.17 8.16 -12.17 8.16 -8 9 C-8 8.34 -8 7.68 -8 7 C-8.96 6.97 -9.92 6.95 -10.88 6.94 C-11.41 6.93 -11.94 6.91 -12.49 6.9 C-14 7 -14 7 -16 8 C-15.67 6.35 -15.34 4.7 -15 3 C-13.68 2.34 -12.36 1.68 -11 1 C-9.68 1.33 -8.36 1.66 -7 2 C-6.67 2.99 -6.34 3.98 -6 5 C-5.34 4.34 -4.68 3.68 -4 3 C-3.01 3 -2.02 3 -1 3 C-0.67 2.01 -0.34 1.02 0 0 Z M-13 3 C-12 5 -12 5 -12 5 Z " fill="#000000" transform="translate(914,209)"/><path d="M0 0 C3.89 1.05 7.47 2.03 11 4 C11.16 4.33 11.16 4.33 12 6 C11.67 6.99 11.34 7.98 11 9 C10.01 9 9.02 9 8 9 C8.16 9.33 8.16 9.33 9 11 C9.83 10.84 9.83 10.84 14 10 C14.66 9.34 15.32 8.68 16 8 C16.99 8.99 17.98 9.98 19 11 C19 13.31 19 15.62 19 18 C17.35 18.33 15.7 18.66 14 19 C14 19.66 14 20.32 14 21 C16.97 21.33 19.94 21.66 23 22 C23.16 21.5 23.16 21.5 24 19 C25.65 19.33 27.3 19.66 29 20 C30.32 21.32 31.64 22.64 33 24 C33.16 25.16 33.16 25.16 34 31 C34.66 31 35.32 31 36 31 C36.33 29.35 36.66 27.7 37 26 C38.65 25.01 40.3 24.02 42 23 C42.66 23.16 42.66 23.16 46 24 C46 24.66 46 25.32 46 26 C47.65 26 49.3 26 51 26 C51 26.66 51 27.32 51 28 C51.66 28 52.32 28 53 28 C53 27.34 53 26.68 53 26 C54.32 25.67 55.64 25.34 57 25 C55.68 24.01 54.36 23.02 53 22 C53.66 20.35 54.32 18.7 55 17 C56.98 16.01 58.96 15.02 61 14 C61.75 14.07 62.5 14.14 63.27 14.22 C64.26 14.31 65.26 14.41 66.25 14.5 C66.74 14.55 67.23 14.6 67.74 14.64 C70.51 14.9 73.22 15.05 76 15 C76 15.66 76 16.32 76 17 C76.99 17.33 77.98 17.66 79 18 C80.22 20.76 81.14 22.94 81 26 C81.33 26.99 81.66 27.98 82 29 C83.98 28.34 85.96 27.68 88 27 C87.67 25.68 87.34 24.36 87 23 C89.31 22.67 91.62 22.34 94 22 C97.1 23.76 99.61 25.36 102 28 C102.33 30.31 102.66 32.62 103 35 C102.01 35.99 101.02 36.98 100 38 C99.17 38.16 99.17 38.16 95 39 C95.99 40.98 96.98 42.96 98 45 C99.65 45.66 101.3 46.32 103 47 C103 47.66 103 48.32 103 49 C103.99 48.83 103.99 48.83 109 48 C112.2 50.42 114.8 52.64 117 56 C116.49 60.37 115.97 64.7 115 69 C110.82 70.25 107.24 69.79 103 69 C103 68.01 103 67.02 103 66 C102.86 65.97 102.86 65.97 102.15 65.85 C100.85 65.61 99.55 65.37 98.25 65.12 C97.81 65.05 97.36 64.97 96.91 64.89 C93.96 64.32 91.62 63.46 89 62 C89.99 63.32 90.98 64.64 92 66 C93.32 66.33 94.64 66.66 96 67 C95.67 67.66 95.67 67.66 94 71 C94 70.34 94 69.68 94 69 C93.01 69.33 92.02 69.66 91 70 C91.66 71.65 92.32 73.3 93 75 C91.68 74.67 90.36 74.34 89 74 C89 72.68 89 71.36 89 70 C88.01 69.67 87.02 69.34 86 69 C86.99 68.67 87.98 68.34 89 68 C88.67 67.34 88.34 66.68 88 66 C87.04 65.66 86.08 65.33 85.12 65 C84.59 64.81 84.06 64.63 83.51 64.44 C82 64 82 64 80 64 C80 63.01 80 62.02 80 61 C78.68 61.99 77.36 62.98 76 64 C76 63.34 76 62.68 76 62 C75.17 62.17 75.17 62.17 71 63 C71.66 62.01 72.32 61.02 73 60 C74.65 59.34 76.3 58.68 78 58 C78 58.66 78 59.32 78 60 C78.66 59.67 79.32 59.34 80 59 C80.33 57.35 80.66 55.7 81 54 C79.85 54.17 79.85 54.17 74 55 C73.67 56.32 73.34 57.64 73 59 C72.17 59.66 72.17 59.66 68 63 C67.67 68.61 67.34 74.22 67 80 C71.6 74.25 71.6 74.25 72.75 70.69 C72.88 70.33 73 69.97 73.13 69.6 C73.43 68.74 73.72 67.87 74 67 C74.33 68.32 74.66 69.64 75 71 C75.99 71.66 76.98 72.32 78 73 C77.69 73.28 77.37 73.56 77.05 73.85 C73.66 77.02 70.39 80.47 69 85 C68.29 88.96 68.11 92.98 68 97 C68.33 97.33 68.66 97.66 69 98 C69.33 97.34 69.66 96.68 70 96 C70.99 95.67 71.98 95.34 73 95 C73.33 94.5 73.33 94.5 75 92 C76.32 92.33 77.64 92.66 79 93 C79.33 94.32 79.66 95.64 80 97 C79.34 97.99 78.68 98.98 78 100 C78.66 100.33 79.32 100.66 80 101 C79.34 101.66 78.68 102.32 78 103 C76.68 102.67 75.36 102.34 74 102 C74.33 101.5 74.33 101.5 76 99 C74.51 99.33 74.51 99.33 67 101 C66.67 100.01 66.34 99.02 66 98 C65.34 98 64.68 98 64 98 C63.67 98.99 63.34 99.98 63 101 C63.66 101.33 64.32 101.66 65 102 C60.64 104.54 57 105.57 52 106 C51.67 104.68 51.34 103.36 51 102 C52.15 101.84 52.15 101.84 58 101 C58 100.34 58 99.68 58 99 C58.99 99 59.98 99 61 99 C61 95.04 61 91.08 61 87 C58.21 82.43 55.5 78.07 52 74 C52.66 73.34 53.32 72.68 54 72 C53.69 70.56 53.38 69.12 53.06 67.69 C52.98 67.28 52.89 66.88 52.8 66.46 C52.71 66.07 52.62 65.67 52.54 65.26 C52.46 64.9 52.38 64.54 52.3 64.17 C51.94 62.76 51.46 61.38 51 60 C47.04 60 43.08 60 39 60 C39 60.66 39 61.32 39 62 C37.35 62.66 35.7 63.32 34 64 C34.16 65.15 34.16 65.15 35 71 C34.34 71.99 33.68 72.98 33 74 C31.35 74 29.7 74 28 74 C28.33 71.69 28.66 69.38 29 67 C28.01 67 27.02 67 26 67 C25.34 67.66 24.68 68.32 24 69 C22.68 69 21.36 69 20 69 C18.68 67.68 17.36 66.36 16 65 C15.84 63.51 15.84 63.51 15 56 C16.32 56 17.64 56 19 56 C19.33 54.02 19.66 52.04 20 50 C19.5 50.17 19.5 50.17 17 51 C16.67 50.01 16.34 49.02 16 48 C15.5 47.83 15.5 47.83 13 47 C12.84 47.33 12.84 47.33 12 49 C12.5 49.17 12.5 49.17 15 50 C14.01 50.99 13.02 51.98 12 53 C9.36 52.34 6.72 51.68 4 51 C4.66 48.03 5.32 45.06 6 42 C5.34 42 4.68 42 4 42 C3.91 42.32 3.83 42.64 3.74 42.96 C3.35 44.41 2.96 45.86 2.56 47.31 C2.5 47.56 2.5 47.56 2.15 48.83 C1.5 51.24 0.83 53.64 0 56 C0.66 55.67 1.32 55.34 2 55 C2.33 54.01 2.66 53.02 3 52 C3.66 52 4.32 52 5 52 C4.69 52.79 4.38 53.58 4.06 54.38 C3.89 54.82 3.71 55.26 3.54 55.71 C3 57 3 57 2.49 57.95 C1.97 59.07 1.81 59.94 1.68 61.16 C1.64 61.56 1.6 61.96 1.56 62.38 C1.52 62.79 1.48 63.2 1.44 63.62 C1.42 63.84 1.42 63.84 1.31 64.9 C1.2 65.93 1.1 66.97 1 68 C1.66 68 2.32 68 3 68 C3.99 65.03 4.98 62.06 6 59 C6.66 59.33 7.32 59.66 8 60 C7.36 61.96 6.71 63.92 6.06 65.88 C5.88 66.43 5.7 66.99 5.51 67.56 C5.33 68.09 5.16 68.63 4.97 69.18 C4.89 69.43 4.89 69.43 4.48 70.67 C4 72 4 72 3.45 73.01 C2.88 74.27 2.89 75.23 2.9 76.6 C2.91 77.09 2.91 77.58 2.91 78.09 C2.92 78.59 2.93 79.1 2.94 79.62 C2.94 80.14 2.95 80.66 2.95 81.19 C2.96 82.46 2.98 83.73 3 85 C4.65 83.35 6.3 81.7 8 80 C8.66 80 9.32 80 10 80 C10.33 77.36 10.66 74.72 11 72 C11.66 73.32 12.32 74.64 13 76 C13.99 76 14.98 76 16 76 C16.66 74.35 17.32 72.7 18 71 C18.33 72.32 18.66 73.64 19 75 C20.15 74.67 20.15 74.67 26 73 C26.33 73.33 26.66 73.66 27 74 C27 76.64 27 79.28 27 82 C26.5 82.16 26.5 82.16 24 83 C22.68 82.01 21.36 81.02 20 80 C20 79.01 20 78.02 20 77 C17.03 78.32 14.06 79.64 11 81 C10.38 81.93 9.76 82.86 9.12 83.81 C7 87 7 87 5.91 88.29 C4.51 90.92 4.49 93.56 4.31 96.5 C4.27 97.08 4.22 97.66 4.17 98.26 C3.97 101.15 3.95 103.26 5 106 C9.98 107.33 14.87 108.39 20 109 C20.33 108.34 20.66 107.68 21 107 C21.19 107.04 21.19 107.04 22.17 107.25 C26.96 108.19 26.96 108.19 29.38 107.56 C29.91 107.38 30.45 107.19 31 107 C30.67 105.35 30.34 103.7 30 102 C30.5 102.66 30.5 102.66 33 106 C33 106.66 33 107.32 33 108 C34.65 107.34 36.3 106.68 38 106 C38.33 105.34 38.66 104.68 39 104 C41.64 104.33 44.28 104.66 47 105 C46.84 105.5 46.84 105.5 46 108 C44.35 108.33 44.35 108.33 36 110 C36.33 111.32 36.66 112.64 37 114 C36.57 114.06 36.13 114.11 35.69 114.17 C34.06 114.38 32.44 114.59 30.81 114.8 C30.11 114.89 29.41 114.98 28.71 115.07 C25.09 115.53 21.52 115.99 18 117 C18 116.34 18 115.68 18 115 C19.15 114.67 19.15 114.67 25 113 C23.62 112.54 22.43 112.18 21 112 C19.98 112.25 19.98 112.25 18.89 112.6 C15 113.45 11.19 112.02 7.44 111 C6.3 110.69 5.16 110.39 4.02 110.09 C3.32 109.91 2.62 109.72 1.92 109.52 C0.04 109.04 -1.39 108.99 -3.25 109.45 C-3.82 109.63 -4.4 109.81 -5 110 C-5.33 110.66 -5.66 111.32 -6 112 C-6.99 112 -7.98 112 -9 112 C-9.33 112.33 -9.66 112.66 -10 113 C-22.88 113.41 -22.88 113.41 -29 111 C-29.44 111.17 -29.88 111.35 -30.33 111.53 C-32.09 112.02 -32.94 111.99 -34.69 111.56 C-35.12 111.46 -35.56 111.36 -36.01 111.25 C-36.17 111.21 -36.17 111.21 -37 111 C-37.33 110.67 -37.66 110.34 -38 110 C-39.65 110 -41.3 110 -43 110 C-43.33 110.33 -43.66 110.66 -44 111 C-49.28 111 -54.56 111 -60 111 C-60.33 110.34 -60.66 109.68 -61 109 C-60.84 108.67 -60.84 108.67 -60 107 C-57.36 107.66 -54.72 108.32 -52 109 C-51.34 108.01 -50.68 107.02 -50 106 C-47.36 105.67 -44.72 105.34 -42 105 C-41.34 105.33 -40.68 105.66 -40 106 C-40.11 103.94 -40.24 101.87 -40.38 99.81 C-40.39 99.52 -40.39 99.52 -40.47 98.06 C-40.72 94.36 -41.38 91.34 -43 88 C-42.34 88.33 -41.68 88.66 -41 89 C-40.34 88.01 -39.68 87.02 -39 86 C-38.01 86.66 -37.02 87.32 -36 88 C-36.08 88.28 -36.08 88.28 -36.49 89.69 C-37.1 92.12 -37.15 94.44 -37.12 96.94 C-37.12 97.38 -37.12 97.82 -37.12 98.27 C-37.08 101.29 -36.78 104.07 -36 107 C-34.35 107 -32.7 107 -31 107 C-30.67 107.33 -30.34 107.66 -30 108 C-29.34 106.68 -28.68 105.36 -28 104 C-27.01 105.98 -26.02 107.96 -25 110 C-22.69 110.33 -20.38 110.66 -18 111 C-18 110.34 -18 109.68 -18 109 C-14.94 108.3 -12.14 107.88 -9 108 C-8.67 107.34 -8.34 106.68 -8 106 C-7.01 106.33 -6.02 106.66 -5 107 C-4.1 105.64 -3.97 104.7 -3.8 103.05 C-3.67 99.34 -3.65 96.09 -5.31 92.69 C-6.69 90.33 -8.26 88.1 -10 86 C-10 85.34 -10 84.68 -10 84 C-14.54 82.13 -18.49 81.74 -23.38 81.88 C-24.02 81.88 -24.66 81.89 -25.32 81.9 C-26.88 81.93 -28.44 81.96 -30 82 C-30.66 80.35 -31.32 78.7 -32 77 C-32.23 76.9 -32.23 76.9 -33.39 76.41 C-36.64 75.04 -39.86 73.63 -43 72 C-42.34 73.98 -41.68 75.96 -41 78 C-42.32 77.34 -43.64 76.68 -45 76 C-45 75.01 -45 74.02 -45 73 C-47.36 73.27 -48.67 73.75 -50.6 75.18 C-52.1 76.41 -53.56 77.7 -55 79 C-55.28 79.03 -55.56 79.05 -55.85 79.08 C-57.15 79.19 -58.45 79.32 -59.75 79.44 C-60.19 79.48 -60.64 79.52 -61.09 79.56 C-63.82 79.82 -66.36 80.27 -69 81 C-69.66 80.34 -70.32 79.68 -71 79 C-71 76.36 -71 73.72 -71 71 C-70.01 70.01 -69.02 69.02 -68 68 C-67.04 67.97 -66.08 67.95 -65.12 67.94 C-64.59 67.93 -64.06 67.91 -63.51 67.9 C-62 68 -62 68 -60 69 C-59.34 67.35 -58.68 65.7 -58 64 C-56.35 63.83 -56.35 63.83 -48 63 C-48.99 64.65 -49.98 66.3 -51 68 C-50.5 68.16 -50.5 68.16 -48 69 C-47.34 67.68 -46.68 66.36 -46 65 C-45.01 65 -44.02 65 -43 65 C-42.34 64.34 -41.68 63.68 -41 63 C-40.34 65.64 -39.68 68.28 -39 71 C-38.01 71.66 -37.02 72.32 -36 73 C-36.99 71.68 -37.98 70.36 -39 69 C-39 67.02 -39 65.04 -39 63 C-40.32 62.67 -41.64 62.34 -43 62 C-43 61.01 -43 60.02 -43 59 C-44.32 59 -45.64 59 -47 59 C-47.33 59.66 -47.66 60.32 -48 61 C-48.66 60.34 -49.32 59.68 -50 59 C-51.65 60.32 -53.3 61.64 -55 63 C-55.99 62.67 -56.98 62.34 -58 62 C-58.5 62.17 -58.5 62.17 -61 63 C-61.66 61.35 -62.32 59.7 -63 58 C-62.34 56.68 -61.68 55.36 -61 54 C-59 55 -57 56 -55 57 C-55 56.34 -55 55.68 -55 55 C-55.99 54.34 -56.98 53.68 -58 53 C-57.67 51.35 -57.34 49.7 -57 48 C-55.35 47.01 -53.7 46.02 -52 45 C-50.68 45.33 -49.36 45.66 -48 46 C-48 46.66 -48 47.32 -48 48 C-47.5 48.17 -47.5 48.17 -45 49 C-43.68 47.68 -42.36 46.36 -41 45 C-40.5 45.17 -40.5 45.17 -38 46 C-38 47.98 -38 49.96 -38 52 C-36 52 -36 52 -34 51 C-34 49.35 -34 47.7 -34 46 C-33.34 46 -32.68 46 -32 46 C-32 45.01 -32 44.02 -32 43 C-30.51 42.84 -30.51 42.84 -23 42 C-23.16 41.34 -23.16 41.34 -24 38 C-25.98 38 -27.96 38 -30 38 C-29.67 36.68 -29.34 35.36 -29 34 C-30.65 34.99 -32.3 35.98 -34 37 C-34.66 36.01 -35.32 35.02 -36 34 C-36 33.01 -36 32.02 -36 31 C-35.01 30.01 -34.02 29.02 -33 28 C-33 26.68 -33 25.36 -33 24 C-32.01 23.67 -31.02 23.34 -30 23 C-29.67 21.68 -29.34 20.36 -29 19 C-27.02 19 -25.04 19 -23 19 C-23 19.66 -23 20.32 -23 21 C-21.02 21 -19.04 21 -17 21 C-17 21.66 -17 22.32 -17 23 C-16.34 23 -15.68 23 -15 23 C-14.67 21.68 -14.34 20.36 -14 19 C-14.99 18.67 -15.98 18.34 -17 18 C-17.05 15.87 -16.87 13.91 -16.5 11.81 C-16.45 11.55 -16.45 11.55 -16.22 10.21 C-16.18 10.01 -16.18 10.01 -16 9 C-15.01 9 -14.02 9 -13 9 C-13 8.34 -13 7.68 -13 7 C-11.68 7 -10.36 7 -9 7 C-8.67 5.68 -8.34 4.36 -8 3 C-5.36 2.01 -2.72 1.02 0 0 Z M2 9 C2 9.66 2 10.32 2 11 C3.65 11 5.3 11 7 11 C7 10.34 7 9.68 7 9 C5.35 9 3.7 9 2 9 Z M-2 10 C-1 12 -1 12 -1 12 Z M-2 15 C-2.99 15.66 -2.99 15.66 -8 19 C-8.33 19.99 -8.66 20.98 -9 22 C-6.36 22.33 -3.72 22.66 -1 23 C-0.67 20.69 -0.34 18.38 0 16 C-0.66 15.67 -1.32 15.34 -2 15 Z M4 15 C3.5 15.33 3.5 15.33 1 17 C1.73 23.99 1.73 23.99 3.06 25.94 C3.37 26.29 3.68 26.64 4 27 C3.01 27.33 2.02 27.66 1 28 C1 29.98 1 31.96 1 34 C1.5 34.33 1.5 34.33 4 36 C10.33 36.18 10.33 36.18 13 35 C13.99 35.33 14.98 35.66 16 36 C15.67 36.82 15.67 36.82 14 41 C15.65 40.34 17.3 39.68 19 39 C19 38.42 19 37.84 19 37.25 C19 35.17 19 33.08 19 31 C18.34 31 17.68 31 17 31 C17 31.66 17 32.32 17 33 C16.34 33 15.68 33 15 33 C15 32.34 15 31.68 15 31 C13.35 30.01 11.7 29.02 10 28 C8.35 28.33 6.7 28.66 5 29 C5.66 28.01 6.32 27.02 7 26 C8.98 25.67 10.96 25.34 13 25 C13 24.34 13 23.68 13 23 C11.35 22.67 9.7 22.34 8 22 C7.67 21.01 7.34 20.02 7 19 C6.01 19.33 5.02 19.66 4 20 C4.66 18.68 5.32 17.36 6 16 C5.34 15.67 4.68 15.34 4 15 Z M-24 22 C-24.33 22.99 -24.66 23.98 -25 25 C-24.34 25 -23.68 25 -23 25 C-23.33 24.01 -23.66 23.02 -24 22 Z M76 22 C75.67 22.99 75.34 23.98 75 25 C76.32 24.34 77.64 23.68 79 23 C78.01 22.67 77.02 22.34 76 22 Z M-14 25 C-13.67 25.99 -13.34 26.98 -13 28 C-11.68 27.67 -10.36 27.34 -9 27 C-9 26.01 -9 25.02 -9 24 C-10.95 24 -12.19 24.34 -14 25 Z M43 25 C42.67 26.32 42.34 27.64 42 29 C42.66 27.68 43.32 26.36 44 25 C43.67 25 43.34 25 43 25 Z M91 24 C90.34 24.66 89.68 25.32 89 26 C89.99 26.16 89.99 26.16 95 27 C95.33 26.34 95.66 25.68 96 25 C94.35 24.67 92.7 24.34 91 24 Z M-3 26 C-3.99 26.99 -4.98 27.98 -6 29 C-6 29.66 -6 30.32 -6 31 C-6.27 30.99 -6.27 30.99 -7.62 30.94 C-10.47 30.93 -13.22 31.48 -16 32 C-15.67 33.32 -15.34 34.64 -15 36 C-15.99 35.34 -16.98 34.68 -18 34 C-18.99 34.99 -19.98 35.98 -21 37 C-21 37.66 -21 38.32 -21 39 C-19.68 38.67 -18.36 38.34 -17 38 C-16.67 39.32 -16.34 40.64 -16 42 C-15.01 41.34 -14.02 40.68 -13 40 C-11.54 40.31 -10.08 40.62 -8.62 40.94 C-8.42 40.98 -8.42 40.98 -7.38 41.2 C-6.98 41.29 -6.58 41.38 -6.16 41.46 C-5.8 41.54 -5.43 41.62 -5.05 41.7 C-3.95 42.01 -3.01 42.46 -2 43 C-3.18 40.53 -4.43 38.24 -6 36 C-5.67 34.68 -5.34 33.36 -5 32 C-3.68 32.33 -2.36 32.66 -1 33 C-0.67 32.34 -0.34 31.68 0 31 C-0.33 29.35 -0.66 27.7 -1 26 C-1.66 26 -2.32 26 -3 26 Z M-9 28 C-9 28.66 -9 29.32 -9 30 C-8.34 29.67 -7.68 29.34 -7 29 C-7.66 28.67 -8.32 28.34 -9 28 Z M53 28 C53.33 28.66 53.66 29.32 54 30 C54.33 29.34 54.66 28.68 55 28 C54.34 28 53.68 28 53 28 Z M88 28 C88 28.66 88 29.32 88 30 C88.66 30 89.32 30 90 30 C90 29.34 90 28.68 90 28 C89.34 28 88.68 28 88 28 Z M20 29 C20.33 29.99 20.66 30.98 21 32 C21.66 32 22.32 32 23 32 C22.67 31.01 22.34 30.02 22 29 C21.34 29 20.68 29 20 29 Z M-22 30 C-22 30.66 -22 31.32 -22 32 C-21.17 32.16 -21.17 32.16 -17 33 C-17 32.34 -17 31.68 -17 31 C-18.65 30.67 -20.3 30.34 -22 30 Z M64 30 C64.33 31.32 64.66 32.64 65 34 C65.33 33.01 65.66 32.02 66 31 C65.34 30.67 64.68 30.34 64 30 Z M68 30 C68 31.32 68 32.64 68 34 C68.99 33.67 69.98 33.34 71 33 C70.67 32.01 70.34 31.02 70 30 C69.34 30 68.68 30 68 30 Z M72 30 C71.67 30.66 71.34 31.32 71 32 C71.66 32.33 71.66 32.33 75 34 C75.33 34.99 75.66 35.98 76 37 C76.99 37.66 77.98 38.32 79 39 C80.65 38.67 82.3 38.34 84 38 C84 37.34 84 36.68 84 36 C82.06 34.9 80.51 34.04 78.25 33.88 C77.84 33.92 77.42 33.96 77 34 C77 33.34 77 32.68 77 32 C76.17 31.67 76.17 31.67 72 30 Z M61 31 C60.5 31.33 60.5 31.33 58 33 C58.33 33.16 58.33 33.16 60 34 C60.99 33.34 61.98 32.68 63 32 C62.34 31.67 61.68 31.34 61 31 Z M99 32 C99.66 32.66 100.32 33.32 101 34 C101 33.34 101 32.68 101 32 C100.34 32 99.68 32 99 32 Z M24 33 C23.01 34.65 22.02 36.3 21 38 C21.99 38.99 22.98 39.98 24 41 C23.01 40.84 23.01 40.84 18 40 C18 40.66 18 41.32 18 42 C18.34 42.06 18.68 42.12 19.02 42.18 C19.47 42.27 19.92 42.35 20.38 42.44 C20.82 42.52 21.26 42.6 21.71 42.68 C22.93 42.98 23.9 43.39 25 44 C25.24 43.73 25.48 43.47 25.73 43.2 C28 40.81 29.98 39.3 33 38 C32.34 36.68 31.68 35.36 31 34 C30.01 34.33 29.02 34.66 28 35 C26.68 34.34 25.36 33.68 24 33 Z M37 33 C36.5 33.66 36.5 33.66 34 37 C34.83 37.16 34.83 37.16 39 38 C39.33 36.68 39.66 35.36 40 34 C39.01 33.67 38.02 33.34 37 33 Z M53 34 C53 34.99 53 35.98 53 37 C54.32 36.67 55.64 36.34 57 36 C55.68 35.34 54.36 34.68 53 34 Z M2 36 C1.67 38.31 1.34 40.62 1 43 C1.99 42.01 2.98 41.02 4 40 C4 38.68 4 37.36 4 36 C3.34 36 2.68 36 2 36 Z M49 36 C50 38 50 38 50 38 Z M93 37 C94 39 94 39 94 39 Z M68 40 C68 40.66 68 41.32 68 42 C68.99 41.67 69.98 41.34 71 41 C70.01 40.67 69.02 40.34 68 40 Z M84 40 C84 40.66 84 41.32 84 42 C85.32 42.33 86.64 42.66 88 43 C88 42.01 88 41.02 88 40 C86.68 40 85.36 40 84 40 Z M46 40 C45.01 40.99 44.02 41.98 43 43 C43.99 43 44.98 43 46 43 C46 42.01 46 41.02 46 40 Z M65 41 C65 41.66 65 42.32 65 43 C65.66 42.67 66.32 42.34 67 42 C66.34 41.67 65.68 41.34 65 41 Z M76 41 C74.35 43.31 72.7 45.62 71 48 C71 46.68 71 45.36 71 44 C69.68 44.33 68.36 44.66 67 45 C66.67 46.65 66.34 48.3 66 50 C66.99 50.33 67.98 50.66 69 51 C69.33 51.99 69.66 52.98 70 54 C70.99 53.34 71.98 52.68 73 52 C73 50.68 73 49.36 73 48 C74.65 47.67 76.3 47.34 78 47 C77.67 45.02 77.34 43.04 77 41 C76.67 41 76.34 41 76 41 Z M11 42 C10.01 42.99 9.02 43.98 8 45 C8.33 46.32 8.66 47.64 9 49 C9.66 49.66 10.32 50.32 11 51 C11.66 48.03 12.32 45.06 13 42 C12.34 42 11.68 42 11 42 Z M82 42 C82.66 42.66 83.32 43.32 84 44 C84 43.34 84 42.68 84 42 C83.34 42 82.68 42 82 42 Z M-2 43 C-1 45 -1 45 -1 45 Z M61 41 C60.67 42.32 60.34 43.64 60 45 C59.34 45 58.68 45 58 45 C58 44.34 58 43.68 58 43 C56.02 43.66 54.04 44.32 52 45 C52 45.66 52 46.32 52 47 C52.66 47 53.32 47 54 47 C54.33 47.5 54.33 47.5 56 50 C57.32 49.34 58.64 48.68 60 48 C60.66 49.65 61.32 51.3 62 53 C62.99 52.67 63.98 52.34 65 52 C64.51 45.93 64.51 45.93 63.27 43.64 C62.55 42.71 61.83 41.84 61 41 Z M-3 48 C-3 48.99 -3 49.98 -3 51 C-2.01 51.33 -1.02 51.66 0 52 C-0.33 50.68 -0.66 49.36 -1 48 C-1.66 48 -2.32 48 -3 48 Z M24 49 C24.33 50.65 24.66 52.3 25 54 C25.99 53.67 26.98 53.34 28 53 C28 52.01 28 51.02 28 50 C26.68 49.67 25.36 49.34 24 49 Z M49 51 C48.67 51.99 48.34 52.98 48 54 C48.66 54 49.32 54 50 54 C50.33 53.01 50.66 52.02 51 51 C50.34 51 49.68 51 49 51 Z M-34 52 C-33.67 52.66 -33.34 53.32 -33 54 C-32.34 54 -31.68 54 -31 54 C-31 53.34 -31 52.68 -31 52 C-31.99 52 -32.98 52 -34 52 Z M59 53 C59.33 54.65 59.66 56.3 60 58 C61.98 58.66 63.96 59.32 66 60 C64.81 57.53 63.57 55.25 62 53 C61.01 53 60.02 53 59 53 Z M-22 54 C-22.33 54.66 -22.66 55.32 -23 56 C-24.32 56.33 -25.64 56.66 -27 57 C-27.33 57.66 -27.66 58.32 -28 59 C-26.02 58.67 -24.04 58.34 -22 58 C-22.33 60.64 -22.66 63.28 -23 66 C-22.34 66 -21.68 66 -21 66 C-20.67 65.34 -20.34 64.68 -20 64 C-19.01 63.67 -18.02 63.34 -17 63 C-16.67 65.97 -16.34 68.94 -16 72 C-14.68 73.65 -13.36 75.3 -12 77 C-11.34 77 -10.68 77 -10 77 C-9.67 78.98 -9.34 80.96 -9 83 C-7.68 84.32 -6.36 85.64 -5 87 C-4.01 87 -3.02 87 -2 87 C-2 80.73 -2 74.46 -2 68 C-3.32 66.02 -4.64 64.04 -6 62 C-7.32 61.67 -8.64 61.34 -10 61 C-10 60.34 -10 59.68 -10 59 C-9.34 59 -8.68 59 -8 59 C-8.33 57.35 -8.66 55.7 -9 54 C-9.99 54.99 -10.98 55.98 -12 57 C-12.99 56.83 -12.99 56.83 -18 56 C-18 55.34 -18 54.68 -18 54 C-19.32 54 -20.64 54 -22 54 Z M-7 54 C-6.27 60.99 -6.27 60.99 -4.94 62.94 C-4.63 63.29 -4.32 63.64 -4 64 C-3.01 63.67 -2.02 63.34 -1 63 C-1 61.35 -1 59.7 -1 58 C-1.99 56.68 -2.98 55.36 -4 54 C-4.99 54 -5.98 54 -7 54 Z M52 55 C52.33 56.98 52.66 58.96 53 61 C53.99 61.33 54.98 61.66 56 62 C55.9 62.33 55.81 62.66 55.71 63 C54.73 67.19 55.17 70.77 56.25 74.88 C57.16 77.77 58.84 79.91 61 82 C61.66 82 62.32 82 63 82 C63.17 79.88 63.33 77.75 63.5 75.62 C63.55 75.02 63.6 74.42 63.64 73.8 C63.69 73.22 63.73 72.64 63.78 72.04 C63.82 71.5 63.87 70.97 63.91 70.42 C63.98 69.28 64 68.14 64 67 C64.33 66.34 64.66 65.68 65 65 C62.69 62.36 60.38 59.72 58 57 C56.02 56.34 54.04 55.68 52 55 Z M27 56 C27 56.66 27 57.32 27 58 C28.32 58.33 29.64 58.66 31 59 C31.33 58.01 31.66 57.02 32 56 C30.35 56 28.7 56 27 56 Z M88 56 C87.17 56.5 87.17 56.5 83 59 C83.33 59.99 83.66 60.98 84 62 C85.32 61.67 86.64 61.34 88 61 C88 60.34 88 59.68 88 59 C88.99 58.67 89.98 58.34 91 58 C90.01 57.34 89.02 56.68 88 56 Z M101 60 C101.66 60.66 102.32 61.32 103 62 C103 61.34 103 60.68 103 60 C102.34 60 101.68 60 101 60 Z M-19 65 C-19 65.66 -19 66.32 -19 67 C-18.34 67 -17.68 67 -17 67 C-17 66.34 -17 65.68 -17 65 C-17.66 65 -18.32 65 -19 65 Z M107 65 C107 65.66 107 66.32 107 67 C107.99 66.67 108.98 66.34 110 66 C109.01 65.67 108.02 65.34 107 65 Z M-23 68 C-23 68.66 -23 69.32 -23 70 C-23.66 70.33 -23.66 70.33 -27 72 C-28.32 71.67 -29.64 71.34 -31 71 C-31.66 71.99 -32.32 72.98 -33 74 C-31.35 75.65 -29.7 77.3 -28 79 C-26.35 79.33 -24.7 79.66 -23 80 C-21.68 79.34 -20.36 78.68 -19 78 C-18.01 78.66 -17.02 79.32 -16 80 C-15.01 80 -14.02 80 -13 80 C-13.67 75.84 -15.86 72.55 -18 69 C-19.65 68.67 -21.3 68.34 -23 68 Z M24 74 C23.5 74.66 23.5 74.66 21 78 C22.32 78.33 23.64 78.66 25 79 C25.33 77.68 25.66 76.36 26 75 C25.34 74.67 24.68 74.34 24 74 Z M-1 93 C-1 93.66 -1 94.32 -1 95 C-0.34 95 0.32 95 1 95 C1 94.34 1 93.68 1 93 C0.34 93 -0.32 93 -1 93 Z M-1 99 C-1.33 99.99 -1.66 100.98 -2 102 C-1.01 102 -0.02 102 1 102 C1 101.01 1 100.02 1 99 C0.34 99 -0.32 99 -1 99 Z " fill="#000000" transform="translate(722,213)"/><path d="M0 0 C0.16 0.33 0.16 0.33 1 2 C1.4 2.13 1.8 2.27 2.21 2.4 C3.51 2.84 3.51 2.84 10 5 C10.16 5.33 10.16 5.33 11 7 C12.32 7.33 13.64 7.66 15 8 C15 7.34 15 6.68 15 6 C14.34 6 13.68 6 13 6 C13 5.34 13 4.68 13 4 C13.99 4.33 14.98 4.66 16 5 C16 5.66 16 6.32 16 7 C17.32 7 18.64 7 20 7 C19.34 6.34 18.68 5.68 18 5 C18 4.01 18 3.02 18 2 C19.32 1.67 20.64 1.34 22 1 C22.66 1.33 23.32 1.66 24 2 C24 1.34 24 0.68 24 0 C24.99 0.16 24.99 0.16 30 1 C30 1.66 30 2.32 30 3 C30.99 3.33 31.98 3.66 33 4 C32.67 4.99 32.34 5.98 32 7 C30.35 6.34 28.7 5.68 27 5 C27.16 5.66 27.16 5.66 28 9 C27.01 9.66 26.02 10.32 25 11 C27.31 11.33 29.62 11.66 32 12 C32.16 12.5 32.16 12.5 33 15 C33.99 15.33 34.98 15.66 36 16 C36 15.34 36 14.68 36 14 C35.67 13.84 35.67 13.84 34 13 C35.32 13 36.64 13 38 13 C38.11 15.41 37.81 16.57 37 19 C34.69 19.33 32.38 19.66 30 20 C28.35 19.01 26.7 18.02 25 17 C24.84 16.67 24.84 16.67 24 15 C23.17 14.84 23.17 14.84 19 14 C17.35 14.66 15.7 15.32 14 16 C14.33 14.68 14.66 13.36 15 12 C14.73 12.16 14.46 12.31 14.19 12.47 C12.48 13.32 10.92 14 8.98 14 C6.63 13.81 4.32 13.43 2 13 C1.84 12.5 1.84 12.5 1 10 C1.33 9.67 1.66 9.34 2 9 C1.01 9 0.02 9 -1 9 C-1.66 9.66 -2.32 10.32 -3 11 C-3.16 10.34 -3.16 10.34 -4 7 C-4.66 7 -5.32 7 -6 7 C-5.84 8.16 -5.84 8.16 -5 14 C-5.66 13.67 -6.32 13.34 -7 13 C-7 11.68 -7 10.36 -7 9 C-9.31 9.33 -11.62 9.66 -14 10 C-13.34 11.32 -12.68 12.64 -12 14 C-13.32 13.67 -14.64 13.34 -16 13 C-16.33 13.99 -16.66 14.98 -17 16 C-16.34 16.33 -15.68 16.66 -15 17 C-15.99 17 -16.98 17 -18 17 C-18.33 17.66 -18.66 18.32 -19 19 C-19.19 18.99 -19.19 18.99 -20.14 18.96 C-23.05 18.91 -25.67 19.06 -28.5 19.71 C-31.96 20.38 -35.5 20.64 -39 21 C-39 19.02 -39 17.04 -39 15 C-37.68 14.01 -36.36 13.02 -35 12 C-34.34 12 -33.68 12 -33 12 C-33 12.66 -33 13.32 -33 14 C-31.02 13.67 -29.04 13.34 -27 13 C-27 12.34 -27 11.68 -27 11 C-25.68 10.34 -24.36 9.68 -23 9 C-23 9.66 -23 10.32 -23 11 C-22.34 10.67 -21.68 10.34 -21 10 C-20.67 8.68 -20.34 7.36 -20 6 C-17.69 6 -15.38 6 -13 6 C-12.34 5.01 -11.68 4.02 -11 3 C-9.35 3 -7.7 3 -6 3 C-5.67 2.34 -5.34 1.68 -5 1 C-3.19 0.34 -1.95 0 0 0 Z M7 7 C7 7.66 7 8.32 7 9 C7.66 9 8.32 9 9 9 C9 8.34 9 7.68 9 7 C8.34 7 7.68 7 7 7 Z " fill="#000000" transform="translate(914,222)"/><path d="" fill="#000000" transform="translate(0,0)"/><path d="M0 0 C0.33 0.33 0.33 0.33 2 2 C2 2.23 2 2.23 1.98 3.42 C1.97 5.17 1.95 6.92 1.95 8.67 C1.94 9.43 1.93 10.18 1.92 10.94 C1.91 12.03 1.91 13.12 1.9 14.21 C1.9 14.53 1.9 14.53 1.89 16.19 C2 18 2 18 3 21 C4.32 18.03 5.64 15.06 7 12 C8.15 11.84 8.15 11.84 14 11 C13.61 11.42 13.23 11.85 12.83 12.29 C11.16 14.14 9.57 16.06 8 18 C7.78 18.27 7.55 18.54 7.32 18.83 C5.83 20.72 4.61 22.65 4 25 C3.56 28.99 3.74 33 4 37 C4.66 37 5.32 37 6 37 C6.16 36.67 6.16 36.67 7 35 C7.66 35 8.32 35 9 35 C9.33 34.01 9.66 33.02 10 32 C10.66 32.17 10.66 32.17 14 33 C14.33 31.35 14.66 29.7 15 28 C16.65 27.34 18.3 26.68 20 26 C20.33 24.68 20.66 23.36 21 22 C21.99 21.67 22.98 21.34 24 21 C24 22.32 24 23.64 24 25 C24.99 25 25.98 25 27 25 C27.16 25.66 27.16 25.66 28 29 C27.67 29.66 27.34 30.32 27 31 C27.5 31.17 27.5 31.17 30 32 C30 32.66 30 33.32 30 34 C30.42 33.83 30.84 33.65 31.27 33.47 C33.29 32.92 34.63 33.09 36.69 33.44 C37.31 33.54 37.93 33.64 38.57 33.75 C39.04 33.83 39.52 33.91 40 34 C40.33 35.32 40.66 36.64 41 38 C39.35 38.5 39.35 38.5 31 41 C31 40.34 31 39.68 31 39 C29.02 39.33 29.02 39.33 19 41 C19.66 41.99 20.32 42.98 21 44 C19.42 44.03 17.83 44.05 16.25 44.06 C15.81 44.07 15.36 44.08 14.91 44.09 C12.78 44.1 10.87 44.04 8.81 43.47 C7 43 7 43 5.73 43.12 C5.57 43.17 5.57 43.17 4.75 43.44 C4.17 43.62 3.6 43.81 3 44 C2.67 44.99 2.34 45.98 2 47 C1.52 47.06 1.04 47.12 0.54 47.18 C-0.09 47.27 -0.72 47.35 -1.38 47.44 C-2 47.52 -2.63 47.6 -3.27 47.68 C-4.74 47.95 -5.74 48.24 -7 49 C-6.67 47.68 -6.34 46.36 -6 45 C-6.28 45.13 -6.55 45.26 -6.84 45.39 C-10.25 46.88 -13.6 47.57 -17.26 48.17 C-25.9 49.61 -34.24 51.83 -42.64 54.26 C-44.06 54.67 -45.48 55.07 -46.9 55.47 C-48.29 55.86 -49.69 56.26 -51.08 56.66 C-52.04 56.93 -53 57.21 -53.97 57.48 C-57.04 58.37 -60 59.35 -62.95 60.58 C-64.23 61.09 -65.49 61.43 -66.83 61.71 C-67.32 61.82 -67.8 61.93 -68.3 62.04 C-68.8 62.15 -69.3 62.26 -69.81 62.38 C-74 63.34 -77.52 64.61 -81.26 66.72 C-83.64 68 -85.34 68.26 -88 68.25 C-88.99 68.17 -89.98 68.08 -91 68 C-91 65.69 -91 63.38 -91 61 C-90.01 61 -89.02 61 -88 61 C-88.66 59.02 -89.32 57.04 -90 55 C-90.66 54.67 -91.32 54.34 -92 54 C-92 52.35 -92 50.7 -92 49 C-90.68 49 -89.36 49 -88 49 C-88 49.66 -88 50.32 -88 51 C-87.34 50.83 -87.34 50.83 -84 50 C-83.01 50.66 -82.02 51.32 -81 52 C-81 51.34 -81 50.68 -81 50 C-79.68 50.66 -78.36 51.32 -77 52 C-77 52.66 -77 53.32 -77 54 C-76.34 54 -75.68 54 -75 54 C-74.34 52.35 -73.68 50.7 -73 49 C-70.67 49 -68.33 49 -66 49 C-65.9 45.17 -65.83 41.67 -67 38 C-66.34 38 -65.68 38 -65 38 C-64.67 37.01 -64.34 36.02 -64 35 C-63.98 35.36 -63.96 35.72 -63.94 36.1 C-63.84 37.77 -63.73 39.45 -63.62 41.12 C-63.59 41.69 -63.56 42.26 -63.53 42.85 C-63.26 46.83 -62.44 50.28 -61 54 C-61 53.67 -61 53.34 -61 53 C-60.7 51.66 -60.34 50.33 -60 49 C-59.01 48.01 -58.02 47.02 -57 46 C-56.67 44.68 -56.34 43.36 -56 42 C-55.34 42 -54.68 42 -54 42 C-53.01 44.31 -52.02 46.62 -51 49 C-51 48.01 -51 47.02 -51 46 C-50.34 46 -49.68 46 -49 46 C-49 46.66 -49 47.32 -49 48 C-47.68 47.34 -46.36 46.68 -45 46 C-45 46.66 -45 47.32 -45 48 C-43.68 48 -42.36 48 -41 48 C-41 48.66 -41 49.32 -41 50 C-40.71 49.92 -40.71 49.92 -39.25 49.5 C-37.11 48.96 -35.2 48.92 -33 49 C-32.67 48.01 -32.34 47.02 -32 46 C-30.68 45.34 -29.36 44.68 -28 44 C-27.34 44.17 -27.34 44.17 -24 45 C-24 45.66 -24 46.32 -24 47 C-23.01 46.67 -22.02 46.34 -21 46 C-19.68 44.35 -18.36 42.7 -17 41 C-16.34 41.33 -15.68 41.66 -15 42 C-15 42.99 -15 43.98 -15 45 C-14.34 45 -13.68 45 -13 45 C-13.19 44.42 -13.37 43.85 -13.56 43.25 C-13.99 41.58 -13.99 40.42 -13.56 38.75 C-13.47 38.46 -13.47 38.46 -13 37 C-13.33 36.34 -13.66 35.68 -14 35 C-13.01 35 -12.02 35 -11 35 C-10.67 33.02 -10.34 31.04 -10 29 C-6.56 30.53 -3.87 32.58 -1 35 C-0.72 30.41 -0.55 26.4 -2.44 22.12 C-2.7 21.59 -2.97 21.06 -3.25 20.51 C-3.98 19.03 -4.51 17.58 -5 16 C-4.34 16 -3.68 16 -3 16 C-2.84 16.33 -2.84 16.33 -2 18 C-1.97 16.71 -1.95 15.42 -1.94 14.12 C-1.93 13.94 -1.93 13.94 -1.91 13.02 C-1.9 11.47 -1.92 10.2 -2.5 8.74 C-2.67 8.5 -2.83 8.25 -3 8 C-2.34 8 -1.68 8 -1 8 C-1.16 6.84 -1.16 6.84 -2 1 C-1.34 0.67 -0.68 0.34 0 0 Z M17 29 C17.33 30.65 17.66 32.3 18 34 C18.99 34 19.98 34 21 34 C20.34 32.68 19.68 31.36 19 30 C18.34 29.67 17.68 29.34 17 29 Z M27 35 C26.67 35.99 26.34 36.98 26 38 C26.99 37.67 27.98 37.34 29 37 C29 36.34 29 35.68 29 35 C28.34 35 27.68 35 27 35 Z M-11 39 C-11 39.66 -11 40.32 -11 41 C-10.34 40.67 -9.68 40.34 -9 40 C-9.66 39.67 -10.32 39.34 -11 39 Z M-54 52 C-54.33 52.17 -54.33 52.17 -56 53 C-56 53.66 -56 54.32 -56 55 C-55.01 54.67 -54.02 54.34 -53 54 C-53.33 53.34 -53.66 52.68 -54 52 Z M-83 54 C-82.67 55.32 -82.34 56.64 -82 58 C-81.67 56.68 -81.34 55.36 -81 54 C-81.66 54 -82.32 54 -83 54 Z M-71 54 C-71.33 54.66 -71.66 55.32 -72 56 C-71.34 56 -70.68 56 -70 56 C-70.33 55.34 -70.66 54.68 -71 54 Z M-72 58 C-71 60 -71 60 -71 60 Z " fill="#000000" transform="translate(911,235)"/><path d="" fill="#000000" transform="translate(0,0)"/><path d="" fill="#000000" transform="translate(0,0)"/><path d="M0 0 C-0.33 1.32 -0.66 2.64 -1 4 C-2.32 3.67 -3.64 3.34 -5 3 C-5 2.34 -5 1.68 -5 1 C-3.3 -0.05 -1.97 -0.09 0 0 Z " fill="#000000" transform="translate(625,239)"/><path d="M0 0 C0.99 0.66 1.98 1.32 3 2 C4.32 1.34 5.64 0.68 7 0 C6.34 1.32 5.68 2.64 5 4 C3.02 4.66 1.04 5.32 -1 6 C-1.33 4.35 -1.66 2.7 -2 1 C-1.34 0.67 -0.68 0.34 0 0 Z " fill="#000000" transform="translate(927,238)"/><path d="" fill="#000000" transform="translate(0,0)"/><path d="" fill="#000000" transform="translate(0,0)"/><path d="" fill="#000000" transform="translate(0,0)"/><path d="M0 0 C0.33 0.16 0.33 0.16 2 1 C1.34 1.66 0.68 2.32 0 3 C0 2.01 0 1.02 0 0 Z " fill="#000000" transform="translate(917,241)"/><path d="" fill="#000000" transform="translate(0,0)"/><path d="M0 0 C0.83 0.16 0.83 0.16 5 1 C3.68 1.99 2.36 2.98 1 4 C0.67 2.68 0.34 1.36 0 0 Z " fill="#000000" transform="translate(638,242)"/><path d="M0 0 C0.99 0.33 1.98 0.66 3 1 C2.67 1.66 2.34 2.32 2 3 C1.34 3 0.68 3 0 3 C0 2.01 0 1.02 0 0 Z " fill="#000000" transform="translate(889,242)"/><path d="" fill="#000000" transform="translate(0,0)"/><path d="M0 0 C0 3 0 3 0 3 Z " fill="#000000" transform="translate(886,243)"/><path d="M0 0 C0.66 0 1.32 0 2 0 C1.67 0.66 1.34 1.32 1 2 C0.67 1.34 0.34 0.68 0 0 Z " fill="#000000" transform="translate(732,244)"/><path d="M0 0 C-0.33 1.32 -0.66 2.64 -1 4 C-1.99 3.67 -2.98 3.34 -4 3 C-4 2.34 -4 1.68 -4 1 C-2.46 0.12 -1.88 0 0 0 Z " fill="#000000" transform="translate(938,244)"/><path d="M0 0 C0.66 0 1.32 0 2 0 C2.33 0.99 2.66 1.98 3 3 C2.01 2.67 1.02 2.34 0 2 C0 1.34 0 0.68 0 0 Z " fill="#000000" transform="translate(901,246)"/><path d="M0 0 C0.66 0.66 1.32 1.32 2 2 C1.34 2 0.68 2 0 2 C0 1.34 0 0.68 0 0 Z " fill="#000000" transform="translate(653,247)"/><path d="M0 0 C1.65 0.33 3.3 0.66 5 1 C5.99 3.31 6.98 5.62 8 8 C6.35 7.67 4.7 7.34 3 7 C3.33 6.01 3.66 5.02 4 4 C2.68 4.33 1.36 4.66 0 5 C-0.66 4.01 -1.32 3.02 -2 2 C-1.34 1.34 -0.68 0.68 0 0 Z " fill="#000000" transform="translate(846,247)"/><path d="M0 0 C1.32 0 2.64 0 4 0 C4 0.66 4 1.32 4 2 C2.68 1.67 1.36 1.34 0 1 C0 0.67 0 0.34 0 0 Z " fill="#000000" transform="translate(601,249)"/><path d="M0 0 C0.83 0.16 0.83 0.16 5 1 C4.34 1.66 3.68 2.32 3 3 C2.01 2.01 1.02 1.02 0 0 Z " fill="#000000" transform="translate(839,249)"/><path d="" fill="#000000" transform="translate(0,0)"/><path d="" fill="#000000" transform="translate(0,0)"/><path d="M0 0 C0.99 0 1.98 0 3 0 C3 0.99 3 1.98 3 3 C2.01 3 1.02 3 0 3 C0 2.01 0 1.02 0 0 Z " fill="#000000" transform="translate(251,252)"/><path d="M0 0 C0.99 0 1.98 0 3 0 C3.33 1.32 3.66 2.64 4 4 C4.99 4 5.98 4 7 4 C7 4.66 7 5.32 7 6 C6.04 6.03 5.08 6.05 4.12 6.06 C3.86 6.07 3.86 6.07 2.51 6.1 C1 6 1 6 -1 5 C-0.67 3.35 -0.34 1.7 0 0 Z " fill="#000000" transform="translate(825,252)"/><path d="" fill="#000000" transform="translate(0,0)"/><path d="M0 0 C0.66 0.16 0.66 0.16 4 1 C3.67 1.99 3.34 2.98 3 4 C1.68 3.34 0.36 2.68 -1 2 C-0.67 1.34 -0.34 0.68 0 0 Z " fill="#000000" transform="translate(835,254)"/><path d="M0 0 C0.99 0.33 1.98 0.66 3 1 C3.33 2.98 3.66 4.96 4 7 C3.01 7.33 2.02 7.66 1 8 C1.66 8.33 2.32 8.66 3 9 C4.32 8.67 5.64 8.34 7 8 C5.43 11.62 5.43 11.62 4.2 12.71 C3.49 13.18 2.75 13.59 2 14 C0.02 14 -1.96 14 -4 14 C-3.67 13.01 -3.34 12.02 -3 11 C-4.32 11 -5.64 11 -7 11 C-7.33 9.35 -7.66 7.7 -8 6 C-6.02 5.34 -4.04 4.68 -2 4 C-2 3.01 -2 2.02 -2 1 C-1.34 0.67 -0.68 0.34 0 0 Z " fill="#000000" transform="translate(861,255)"/><path d="M0 0 C1.65 0 3.3 0 5 0 C5.66 0.99 6.32 1.98 7 3 C6.67 3.66 6.34 4.32 6 5 C5.34 5 4.68 5 4 5 C3.67 7.31 3.34 9.62 3 12 C2.67 12 2.34 12 2 12 C2.02 11.47 2.05 10.94 2.07 10.39 C2.26 3.96 2.26 3.96 1 1.5 C0.67 1 0.34 0.51 0 0 Z " fill="#000000" transform="translate(844,256)"/><path d="" fill="#000000" transform="translate(0,0)"/><path d="M0 0 C0.99 0.33 1.98 0.66 3 1 C3.66 0.67 4.32 0.34 5 0 C4.67 1.32 4.34 2.64 4 4 C1.69 4.33 -0.62 4.66 -3 5 C-2.67 3.68 -2.34 2.36 -2 1 C-1.34 0.67 -0.68 0.34 0 0 Z " fill="#000000" transform="translate(839,258)"/><path d="" fill="#000000" transform="translate(0,0)"/><path d="M0 0 C2 1 2 1 2 1 Z " fill="#000000" transform="translate(586,263)"/><path d="M0 0 C1.44 0.59 2.88 1.2 4.31 1.81 C4.51 1.9 4.51 1.9 5.54 2.31 C8.27 3.49 10.02 4.77 12 7 C9.36 7.66 6.72 8.32 4 9 C3.34 9.66 2.68 10.32 2 11 C-0.31 11.33 -2.62 11.66 -5 12 C-4.67 11.34 -4.34 10.68 -4 10 C-4.99 9.34 -5.98 8.68 -7 8 C-5.02 7.67 -3.04 7.34 -1 7 C-1.33 5.35 -1.66 3.7 -2 2 C-1.34 1.34 -0.68 0.68 0 0 Z " fill="#000000" transform="translate(962,263)"/><path d="" fill="#000000" transform="translate(0,0)"/><path d="M0 0 C2.64 0.66 5.28 1.32 8 2 C8 2.33 8 2.66 8 3 C5.94 3.29 3.87 3.57 1.81 3.85 C1.11 3.95 0.41 4.05 -0.29 4.15 C-7.45 5.15 -7.45 5.15 -11 5 C-10.34 3.68 -9.68 2.36 -9 1 C-7.35 1.33 -5.7 1.66 -4 2 C-2.68 1.34 -1.36 0.68 0 0 Z " fill="#000000" transform="translate(993,264)"/><path d="M0 0 C2 1 2 1 2 1 Z " fill="#000000" transform="translate(850,265)"/><path d="" fill="#000000" transform="translate(0,0)"/><path d="" fill="#000000" transform="translate(0,0)"/><path d="M0 0 C0.66 0.66 1.32 1.32 2 2 C1.01 1.67 0.02 1.34 -1 1 C-0.67 0.67 -0.34 0.34 0 0 Z " fill="#000000" transform="translate(977,267)"/><path d="" fill="#000000" transform="translate(0,0)"/><path d="M0 0 C1.32 0.33 2.64 0.66 4 1 C4 1.66 4 2.32 4 3 C2.68 2.67 1.36 2.34 0 2 C0 1.34 0 0.68 0 0 Z " fill="#000000" transform="translate(703,272)"/><path d="M0 0 C0.99 0 1.98 0 3 0 C3 0.66 3 1.32 3 2 C2.01 2 1.02 2 0 2 C0 1.34 0 0.68 0 0 Z " fill="#000000" transform="translate(777,272)"/><path d="M0 0 C0.66 0 1.32 0 2 0 C2 0.66 2 1.32 2 2 C1.34 2 0.68 2 0 2 C0 1.34 0 0.68 0 0 Z " fill="#000000" transform="translate(675,274)"/><path d="" fill="#000000" transform="translate(0,0)"/><path d="" fill="#000000" transform="translate(0,0)"/><path d="M0 0 C1.32 1.32 2.64 2.64 4 4 C5.32 3.67 6.64 3.34 8 3 C7.67 4.98 7.34 6.96 7 9 C7.99 9.99 8.98 10.98 10 12 C7.69 11.67 5.38 11.34 3 11 C2.34 11.33 2.34 11.33 -1 13 C-1.33 12.01 -1.66 11.02 -2 10 C-1.34 10 -0.68 10 0 10 C-0.99 9.01 -1.98 8.02 -3 7 C-4.32 6.67 -5.64 6.34 -7 6 C-7 5.34 -7 4.68 -7 4 C-5.68 4 -4.36 4 -3 4 C-2.01 2.68 -1.02 1.36 0 0 Z " fill="#000000" transform="translate(763,275)"/><path d="M0 0 C0.99 0 1.98 0 3 0 C3 0.66 3 1.32 3 2 C2.01 1.67 1.02 1.34 0 1 C0 0.67 0 0.34 0 0 Z " fill="#000000" transform="translate(733,276)"/><path d="M0 0 C0.99 0.33 1.98 0.66 3 1 C2.01 1 1.02 1 0 1 C0 0.67 0 0.34 0 0 Z " fill="#000000" transform="translate(771,277)"/><path d="" fill="#000000" transform="translate(0,0)"/><path d="" fill="#000000" transform="translate(0,0)"/><path d="M0 0 C1 4 1 4 1 4 Z " fill="#000000" transform="translate(713,279)"/><path d="M0 0 C0.99 0.33 1.98 0.66 3 1 C3.33 2.32 3.66 3.64 4 5 C2.35 5.33 0.7 5.66 -1 6 C-0.67 4.02 -0.34 2.04 0 0 Z " fill="#000000" transform="translate(801,279)"/><path d="M0 0 C0.99 0.33 1.98 0.66 3 1 C2.67 1.5 2.67 1.5 1 4 C0.67 2.68 0.34 1.36 0 0 Z " fill="#000000" transform="translate(733,280)"/><path d="M0 0 C0.33 0.66 0.66 1.32 1 2 C0.34 1.67 -0.32 1.34 -1 1 C-0.67 0.67 -0.34 0.34 0 0 Z " fill="#000000" transform="translate(749,281)"/><path d="M0 0 C2 1 2 1 2 1 Z " fill="#000000" transform="translate(214,283)"/><path d="M0 0 C0.51 0 1.01 0.01 1.54 0.01 C2.77 0.03 4.01 0.04 5.25 0.06 C5.25 0.72 5.25 1.38 5.25 2.06 C-0.03 2.72 -5.31 3.38 -10.75 4.06 C-10.42 3.07 -10.09 2.08 -9.75 1.06 C-6.44 0.06 -3.44 -0.06 0 0 Z " fill="#000000" transform="translate(318.75,284.9375)"/><path d="M0 0 C1.65 0 3.3 0 5 0 C5 0.99 5 1.98 5 3 C4.01 2.83 4.01 2.83 -1 2 C-0.67 1.34 -0.34 0.68 0 0 Z " fill="#000000" transform="translate(327,285)"/><path d="M0 0 C0.33 0.66 0.66 1.32 1 2 C0.34 1.67 -0.32 1.34 -1 1 C-0.67 0.67 -0.34 0.34 0 0 Z " fill="#000000" transform="translate(758,285)"/><path d="M0 0 C0.99 0.33 1.98 0.66 3 1 C2.01 1 1.02 1 0 1 C0 0.67 0 0.34 0 0 Z " fill="#000000" transform="translate(334,287)"/><path d="M0 0 C0.66 0.66 1.32 1.32 2 2 C1.34 2 0.68 2 0 2 C0 1.34 0 0.68 0 0 Z " fill="#000000" transform="translate(673,287)"/><path d="M0 0 C0.66 0 1.32 0 2 0 C2 0.66 2 1.32 2 2 C1.34 2 0.68 2 0 2 C0 1.34 0 0.68 0 0 Z " fill="#000000" transform="translate(696,288)"/><path d="M0 0 C1.32 0.99 2.64 1.98 4 3 C3.34 3 2.68 3 2 3 C1.67 3.99 1.34 4.98 1 6 C0.67 6 0.34 6 0 6 C0 4.02 0 2.04 0 0 Z " fill="#000000" transform="translate(683,289)"/><path d="M0 0 C0.66 0.66 1.32 1.32 2 2 C1.01 2.66 0.02 3.32 -1 4 C-2.32 4 -3.64 4 -5 4 C-5 3.34 -5 2.68 -5 2 C-3.35 1.34 -1.7 0.68 0 0 Z " fill="#000000" transform="translate(304,289)"/><path d="M0 0 C2.31 0.66 4.62 1.32 7 2 C7.33 2.66 7.66 3.32 8 4 C6.02 4.33 4.04 4.66 2 5 C1.18 4.67 1.18 4.67 -3 3 C-3 2.34 -3 1.68 -3 1 C-2.01 0.67 -1.02 0.34 0 0 Z " fill="#000000" transform="translate(345,289)"/><path d="M0 0 C0.66 0 1.32 0 2 0 C1.67 0.66 1.34 1.32 1 2 C0.67 1.34 0.34 0.68 0 0 Z " fill="#000000" transform="translate(670,290)"/><path d="M0 0 C0.33 0.99 0.66 1.98 1 3 C0.34 2.67 -0.32 2.34 -1 2 C-0.67 1.34 -0.34 0.68 0 0 Z " fill="#000000" transform="translate(680,292)"/><path d="" fill="#000000" transform="translate(0,0)"/><path d="" fill="#000000" transform="translate(0,0)"/><path d="" fill="#000000" transform="translate(0,0)"/><path d="" fill="#000000" transform="translate(0,0)"/><path d="M0 0 C1.65 0 3.3 0 5 0 C5.33 1.32 5.66 2.64 6 4 C7.65 3.67 9.3 3.34 11 3 C12.32 4.32 13.64 5.64 15 7 C13.35 7.33 11.7 7.66 10 8 C7.03 6.35 4.06 4.7 1 3 C0.67 2.01 0.34 1.02 0 0 Z " fill="#000000" transform="translate(361,296)"/><path d="M0 0 C0.66 0.66 1.32 1.32 2 2 C1.01 1.67 0.02 1.34 -1 1 C-0.67 0.67 -0.34 0.34 0 0 Z " fill="#000000" transform="translate(658,296)"/><path d="M0 0 C2.31 0 4.62 0 7 0 C6.67 0.66 6.34 1.32 6 2 C3.69 2.33 1.38 2.66 -1 3 C-0.67 2.01 -0.34 1.02 0 0 Z " fill="#000000" transform="translate(273,297)"/><path d="M0 0 C0.99 0.33 1.98 0.66 3 1 C2.01 1 1.02 1 0 1 C0 0.67 0 0.34 0 0 Z " fill="#000000" transform="translate(661,297)"/><path d="M0 0 C3.96 0.33 7.92 0.66 12 1 C12.33 1.66 12.66 2.32 13 3 C10.36 3 7.72 3 5 3 C5 3.66 5 4.32 5 5 C4.01 4.83 4.01 4.83 -1 4 C-2.32 4.99 -3.64 5.98 -5 7 C-5 7.99 -5 8.98 -5 10 C-6.98 10 -8.96 10 -11 10 C-9.96 7.73 -9.07 5.84 -7.07 4.27 C-4.78 2.71 -2.41 1.38 0 0 Z " fill="#000000" transform="translate(228,299)"/><path d="" fill="#000000" transform="translate(0,0)"/><path d="M0 0 C0.66 0.33 0.66 0.33 4 2 C2.68 2.33 1.36 2.66 0 3 C0 2.01 0 1.02 0 0 Z " fill="#000000" transform="translate(816,301)"/><path d="M0 0 C2 1 2 1 2 1 Z " fill="#000000" transform="translate(173,302)"/><path d="M0 0 C0.33 0.66 0.66 1.32 1 2 C0.34 1.67 -0.32 1.34 -1 1 C-0.67 0.67 -0.34 0.34 0 0 Z " fill="#000000" transform="translate(263,302)"/><path d="M0 0 C4 1 4 1 4 1 Z " fill="#000000" transform="translate(169,303)"/><path d="M0 0 C4.79 -0.11 9.29 0 14 1 C10.23 3.2 6.22 4.04 2 5 C1.67 5.66 1.34 6.32 1 7 C1.66 7 2.32 7 3 7 C2.53 8.72 2.14 9.84 0.94 11.19 C0.63 11.46 0.32 11.72 0 12 C0.33 12.66 0.66 13.32 1 14 C-1.64 14 -4.28 14 -7 14 C-6.01 11.03 -5.02 8.06 -4 5 C-4.66 5 -5.32 5 -6 5 C-6 4.34 -6 3.68 -6 3 C-4.02 2.67 -2.04 2.34 0 2 C0 1.34 0 0.68 0 0 Z M-3 7 C-2 9 -2 9 -2 9 Z " fill="#000000" transform="translate(247,303)"/><path d="M0 0 C2.64 0.66 5.28 1.32 8 2 C8.66 3.65 9.32 5.3 10 7 C8.02 7.33 6.04 7.66 4 8 C3.34 6.68 2.68 5.36 2 4 C2.99 3.67 3.98 3.34 5 3 C3.35 2.67 1.7 2.34 0 2 C0 1.34 0 0.68 0 0 Z " fill="#000000" transform="translate(377,303)"/><path d="M0 0 C0.99 0.33 1.98 0.66 3 1 C2.01 1.33 1.02 1.66 0 2 C0 1.34 0 0.68 0 0 Z " fill="#000000" transform="translate(830,303)"/><path d="M0 0 C0.99 0.99 1.98 1.98 3 3 C2.67 3.33 2.34 3.66 2 4 C2.99 4.33 3.98 4.66 5 5 C5 5.66 5 6.32 5 7 C4.34 7.33 4.34 7.33 1 9 C1 10.32 1 11.64 1 13 C1.66 13.33 2.32 13.66 3 14 C3 15.32 3 16.64 3 18 C4.32 18.33 5.64 18.66 7 19 C7 18.01 7 17.02 7 16 C8.32 16 9.64 16 11 16 C11.16 16.82 11.16 16.82 12 21 C11.6 21.07 11.6 21.07 9.55 21.4 C8.47 21.58 7.39 21.76 6.31 21.94 C5.78 22.02 5.25 22.11 4.71 22.2 C4.18 22.29 3.65 22.38 3.11 22.46 C2.59 22.55 2.06 22.64 1.52 22.73 C0.12 22.98 -1.26 23.3 -2.64 23.63 C-4.71 24.06 -6.03 23.82 -8.01 23.2 C-9.87 22.82 -11.58 23.44 -13.38 23.94 C-16.98 24.85 -20.27 25.26 -24 25 C-23.34 23.68 -22.68 22.36 -22 21 C-21.34 21 -20.68 21 -20 21 C-19.67 20.01 -19.34 19.02 -19 18 C-9.59 17.82 -9.59 17.82 -5 19 C-6.65 18.34 -8.3 17.68 -10 17 C-9.67 16.01 -9.34 15.02 -9 14 C-8.17 14.17 -8.17 14.17 -4 15 C-4 14.34 -4 13.68 -4 13 C-3.01 13 -2.02 13 -1 13 C-1.07 12.84 -1.07 12.84 -1.4 12.05 C-2.5 9.39 -3.38 6.81 -4 4 C-3.01 4 -2.02 4 -1 4 C-0.67 2.68 -0.34 1.36 0 0 Z M-12 20 C-12 20.66 -12 21.32 -12 22 C-11.01 22 -10.02 22 -9 22 C-9 21.34 -9 20.68 -9 20 C-9.99 20 -10.98 20 -12 20 Z " fill="#000000" transform="translate(553,304)"/><path d="M0 0 C1.65 0 3.3 0 5 0 C4.01 0.66 3.02 1.32 2 2 C1.01 1.67 0.02 1.34 -1 1 C-0.67 0.67 -0.34 0.34 0 0 Z " fill="#000000" transform="translate(809,305)"/><path d="M0 0 C-0.33 0.5 -0.33 0.5 -2 3 C-4.31 3.33 -6.62 3.66 -9 4 C-9 3.01 -9 2.02 -9 1 C-5.92 0.09 -3.2 -0.12 0 0 Z " fill="#000000" transform="translate(830,305)"/><path d="M0 0 C0.66 0 1.32 0 2 0 C2 0.66 2 1.32 2 2 C1.34 2 0.68 2 0 2 C0 1.34 0 0.68 0 0 Z " fill="#000000" transform="translate(151,306)"/><path d="" fill="#000000" transform="translate(0,0)"/><path d="M0 0 C1.32 0 2.64 0 4 0 C4.33 0.99 4.66 1.98 5 3 C4.18 3.5 4.18 3.5 0 6 C-1.32 5.67 -2.64 5.34 -4 5 C-3.01 4.67 -2.02 4.34 -1 4 C-0.67 2.68 -0.34 1.36 0 0 Z " fill="#000000" transform="translate(212,307)"/><path d="" fill="#000000" transform="translate(0,0)"/><path d="M0 0 C0.66 0 1.32 0 2 0 C1.67 1.32 1.34 2.64 1 4 C0.67 2.68 0.34 1.36 0 0 Z " fill="#000000" transform="translate(318,307)"/><path d="M0 0 C0.66 0.17 0.66 0.17 4 1 C4 1.33 4 1.66 4 2 C2.35 2 0.7 2 -1 2 C-0.67 1.34 -0.34 0.68 0 0 Z " fill="#000000" transform="translate(388,307)"/><path d="" fill="#000000" transform="translate(0,0)"/><path d="" fill="#000000" transform="translate(0,0)"/><path d="M0 0 C0.33 1.32 0.66 2.64 1 4 C-0.98 4.66 -2.96 5.32 -5 6 C-4.67 4.35 -4.34 2.7 -4 1 C-3.01 1 -2.02 1 -1 1 C-0.67 0.67 -0.34 0.34 0 0 Z " fill="#000000" transform="translate(256,307)"/><path d="M0 0 C0.33 0.66 0.66 1.32 1 2 C0.34 1.67 -0.32 1.34 -1 1 C-0.67 0.67 -0.34 0.34 0 0 Z " fill="#000000" transform="translate(259,308)"/><path d="M0 0 C0.99 0.33 1.98 0.66 3 1 C3.33 1.99 3.66 2.98 4 4 C2.68 3.34 1.36 2.68 0 2 C0 1.34 0 0.68 0 0 Z " fill="#000000" transform="translate(376,308)"/><path d="" fill="#000000" transform="translate(0,0)"/><path d="" fill="#000000" transform="translate(0,0)"/><path d="" fill="#000000" transform="translate(0,0)"/><path d="M0 0 C0.82 0.33 0.82 0.33 5 2 C5 2.33 5 2.66 5 3 C3.02 3 1.04 3 -1 3 C-0.67 2.01 -0.34 1.02 0 0 Z " fill="#000000" transform="translate(368,310)"/><path d="M0 0 C0.33 0.99 0.66 1.98 1 3 C0.34 3 -0.32 3 -1 3 C-0.67 2.01 -0.34 1.02 0 0 Z " fill="#000000" transform="translate(565,310)"/><path d="M0 0 C0.66 0 1.32 0 2 0 C1.67 0.66 1.34 1.32 1 2 C0.67 1.34 0.34 0.68 0 0 Z " fill="#000000" transform="translate(373,311)"/><path d="M0 0 C0.99 0.33 1.98 0.66 3 1 C3 1.66 3 2.32 3 3 C2.01 3 1.02 3 0 3 C0 2.01 0 1.02 0 0 Z " fill="#000000" transform="translate(559,311)"/><path d="M0 0 C0.33 0 0.66 0 1 0 C1.33 2.64 1.66 5.28 2 8 C1.01 7.83 1.01 7.83 -4 7 C-4.33 5.68 -4.66 4.36 -5 3 C-4.5 3.33 -4.5 3.33 -2 5 C-1.34 3.35 -0.68 1.7 0 0 Z " fill="#000000" transform="translate(740,311)"/><path d="M0 0 C1.32 0.66 2.64 1.32 4 2 C4 2.99 4 3.98 4 5 C2.35 5 0.7 5 -1 5 C-1.33 4.01 -1.66 3.02 -2 2 C-1.34 1.34 -0.68 0.68 0 0 Z " fill="#000000" transform="translate(539,312)"/><path d="" fill="#000000" transform="translate(0,0)"/><path d="" fill="#000000" transform="translate(0,0)"/><path d="M0 0 C1.32 0.66 2.64 1.32 4 2 C3.67 2.66 3.34 3.32 3 4 C1.35 4.66 -0.3 5.32 -2 6 C-2 6.66 -2 7.32 -2 8 C-14.88 8.21 -14.88 8.21 -21 7 C-20.34 6.01 -19.68 5.02 -19 4 C-18.47 4.01 -17.93 4.02 -17.38 4.04 C-11.53 4.12 -5.82 3.68 0 3 C0 2.01 0 1.02 0 0 Z " fill="#000000" transform="translate(347,313)"/><path d="M0 0 C0.66 0 1.32 0 2 0 C2 0.66 2 1.32 2 2 C1.01 1.67 0.02 1.34 -1 1 C-0.67 0.67 -0.34 0.34 0 0 Z " fill="#000000" transform="translate(360,313)"/><path d="M0 0 C0.66 0 1.32 0 2 0 C2.33 0.99 2.66 1.98 3 3 C2.01 3.33 1.02 3.66 0 4 C0 2.68 0 1.36 0 0 Z " fill="#000000" transform="translate(696,313)"/><path d="M0 0 C0.66 1.32 1.32 2.64 2 4 C-1.63 4 -5.26 4 -9 4 C-8.01 3.01 -7.02 2.02 -6 1 C-4.02 0.67 -2.04 0.34 0 0 Z " fill="#000000" transform="translate(207,313)"/><path d="M0 0 C1.32 0.66 2.64 1.32 4 2 C4.33 2.99 4.66 3.98 5 5 C3.02 4.34 1.04 3.68 -1 3 C-0.67 2.01 -0.34 1.02 0 0 Z " fill="#000000" transform="translate(231,314)"/><path d="M0 0 C0.33 1.32 0.66 2.64 1 4 C-0.98 4 -2.96 4 -5 4 C-1.86 0.71 -1.86 0.71 0 0 Z " fill="#000000" transform="translate(257,313)"/><path d="M0 0 C0.99 0 1.98 0 3 0 C3 0.66 3 1.32 3 2 C2.01 2 1.02 2 0 2 C0 1.34 0 0.68 0 0 Z " fill="#000000" transform="translate(267,314)"/><path d="M0 0 C0.66 0.99 1.32 1.98 2 3 C1.67 3.66 1.34 4.32 1 5 C4.95 5.65 8.73 6.11 12.74 5.94 C14.09 6 14.85 6.31 16 7 C16 7.66 16 8.32 16 9 C10.39 9 4.78 9 -1 9 C-1 6.36 -1 3.72 -1 1 C-0.67 0.67 -0.34 0.34 0 0 Z " fill="#000000" transform="translate(585,314)"/><path d="M0 0 C1.65 0.33 3.3 0.66 5 1 C5 1.33 5 1.66 5 2 C3.02 2 1.04 2 -1 2 C-0.67 1.34 -0.34 0.68 0 0 Z " fill="#000000" transform="translate(216,315)"/><path d="M0 0 C0.99 0 1.98 0 3 0 C3 0.66 3 1.32 3 2 C2.01 2 1.02 2 0 2 C0 1.34 0 0.68 0 0 Z " fill="#000000" transform="translate(262,315)"/><path d="M0 0 C0.53 0.08 1.06 0.17 1.61 0.25 C8.58 1.28 8.58 1.28 12 0 C12 0.66 12 1.32 12 2 C14.15 2.16 16.17 2.3 18.22 1.55 C19.17 1.07 20.09 0.54 21 0 C21.33 0.99 21.66 1.98 22 3 C21.67 3.33 21.34 3.66 21 4 C13.61 4.15 6.35 3.72 -1 3 C-0.67 2.01 -0.34 1.02 0 0 Z " fill="#000000" transform="translate(279,315)"/><path d="" fill="#000000" transform="translate(0,0)"/><path d="M0 0 C0.66 0.66 1.32 1.32 2 2 C2 3.32 2 4.64 2 6 C1.01 6 0.02 6 -1 6 C-1 4.35 -1 2.7 -1 1 C-0.67 0.67 -0.34 0.34 0 0 Z " fill="#000000" transform="translate(496,315)"/><path d="M0 0 C0.99 0.17 0.99 0.17 6 1 C6 1.66 6 2.32 6 3 C4.68 3.84 3.86 4.01 2.27 4.1 C1.96 4.09 1.96 4.09 0.38 4.06 C-0.26 4.05 -0.89 4.04 -1.54 4.04 C-2.02 4.02 -2.5 4.01 -3 4 C-2.01 2.68 -1.02 1.36 0 0 Z " fill="#000000" transform="translate(190,316)"/><path d="M0 0 C0.66 0.33 1.32 0.66 2 1 C2 1.66 2 2.32 2 3 C3.65 2.34 5.3 1.68 7 1 C7 1.66 7 2.32 7 3 C7.66 3 8.32 3 9 3 C8.67 3.99 8.34 4.98 8 6 C1.4 5.67 -5.2 5.34 -12 5 C-12 4.34 -12 3.68 -12 3 C-10.73 2.8 -9.46 2.62 -8.19 2.44 C-7.83 2.38 -7.47 2.33 -7.11 2.27 C-5.26 2.01 -4.08 1.98 -2.24 2.47 C-1.83 2.65 -1.42 2.82 -1 3 C-0.67 2.01 -0.34 1.02 0 0 Z " fill="#000000" transform="translate(314,314)"/><path d="M0 0 C4 1 4 1 4 1 Z " fill="#000000" transform="translate(466,317)"/><path d="" fill="#000000" transform="translate(0,0)"/><path d="" fill="#000000" transform="translate(0,0)"/><path d="M0 0 C0.58 0.14 1.16 0.29 1.76 0.44 C6.23 1.51 10.37 2.33 15 2 C14.67 2.99 14.34 3.98 14 5 C9.71 5 5.42 5 1 5 C1 4.34 1 3.68 1 3 C0.34 3 -0.32 3 -1 3 C-0.67 2.01 -0.34 1.02 0 0 Z " fill="#000000" transform="translate(567,319)"/><path d="M0 0 C0.33 0.17 0.33 0.17 2 1 C1.67 1.17 1.67 1.17 0 2 C0 1.34 0 0.68 0 0 Z " fill="#000000" transform="translate(582,319)"/><path d="M0 0 C2 1 2 1 2 1 Z " fill="#000000" transform="translate(808,319)"/><path d="M0 0 C2 1 2 1 2 1 Z " fill="#000000" transform="translate(829,319)"/><path d="" fill="#000000" transform="translate(0,0)"/><path d="" fill="#000000" transform="translate(0,0)"/><path d="M0 0 C1.65 0.33 3.3 0.66 5 1 C5 1.99 5 2.98 5 4 C3.35 4.66 1.7 5.32 0 6 C-0.33 4.35 -0.66 2.7 -1 1 C-0.67 0.67 -0.34 0.34 0 0 Z " fill="#000000" transform="translate(484,320)"/><path d="M0 0 C0.32 0.03 0.64 0.06 0.96 0.09 C2.41 0.23 3.86 0.36 5.31 0.5 C5.56 0.52 5.56 0.52 6.83 0.64 C9.23 0.87 11.59 1.07 14 1 C14 2.32 14 3.64 14 5 C12.02 4.5 12.02 4.5 2 2 C1.67 2.66 1.34 3.32 1 4 C0.67 2.68 0.34 1.36 0 0 Z " fill="#000000" transform="translate(500,320)"/><path d="M0 0 C0.66 0.33 0.66 0.33 4 2 C2.68 2 1.36 2 0 2 C0 1.34 0 0.68 0 0 Z " fill="#000000" transform="translate(516,320)"/><path d="M0 0 C4.14 -0.11 7.98 -0.04 12 1 C12 1.33 12 1.66 12 2 C7.71 2 3.42 2 -1 2 C-0.67 1.34 -0.34 0.68 0 0 Z " fill="#000000" transform="translate(610,320)"/><path d="M0 0 C0.33 0.17 0.33 0.17 2 1 C2 1.66 2 2.32 2 3 C1.34 3 0.68 3 0 3 C0 2.01 0 1.02 0 0 Z " fill="#000000" transform="translate(651,320)"/><path d="" fill="#000000" transform="translate(0,0)"/><path d="" fill="#000000" transform="translate(0,0)"/><path d="M0 0 C2.31 0 4.62 0 7 0 C7 0.33 7 0.66 7 1 C4.69 1 2.38 1 0 1 C0 0.67 0 0.34 0 0 Z " fill="#000000" transform="translate(624,321)"/><path d="M0 0 C2 1 2 1 2 1 Z " fill="#000000" transform="translate(633,321)"/><path d="M0 0 C4 1 4 1 4 1 Z " fill="#000000" transform="translate(640,321)"/><path d="M0 0 C2.64 0 5.28 0 8 0 C8 0.66 8 1.32 8 2 C5.69 2.33 3.38 2.66 1 3 C0.67 2.01 0.34 1.02 0 0 Z " fill="#000000" transform="translate(361,322)"/><path d="" fill="#000000" transform="translate(0,0)"/><path d="M0 0 C3 1 3 1 3 1 Z " fill="#000000" transform="translate(447,322)"/><path d="M0 0 C2 1 2 1 2 1 Z " fill="#000000" transform="translate(458,322)"/><path d="M0 0 C1.32 0.66 2.64 1.32 4 2 C4 2.66 4 3.32 4 4 C2.68 4.33 1.36 4.66 0 5 C-0.66 4.01 -1.32 3.02 -2 2 C-1.34 1.34 -0.68 0.68 0 0 Z " fill="#000000" transform="translate(493,322)"/><path d="" fill="#000000" transform="translate(0,0)"/><path d="M0 0 C1.65 0.33 3.3 0.66 5 1 C4.67 1.66 4.34 2.32 4 3 C2.35 3 0.7 3 -1 3 C-0.67 2.01 -0.34 1.02 0 0 Z " fill="#000000" transform="translate(523,322)"/><path d="M0 0 C0.99 0.33 1.98 0.66 3 1 C3 1.99 3 2.98 3 4 C4.65 4.33 6.3 4.66 8 5 C8.66 5.66 9.32 6.32 10 7 C8.75 7.17 7.5 7.34 6.25 7.5 C5.9 7.55 5.55 7.6 5.2 7.64 C2.78 7.96 0.44 8.04 -2 8 C-2 7.34 -2 6.68 -2 6 C-1.01 5.67 -0.02 5.34 1 5 C1.33 4.01 1.66 3.02 2 2 C1.34 2 0.68 2 0 2 C0 1.34 0 0.68 0 0 Z " fill="#000000" transform="translate(517,323)"/><path d="M0 0 C0.66 0.99 1.32 1.98 2 3 C1.67 4.65 1.34 6.3 1 8 C2.65 8.66 4.3 9.32 6 10 C6 10.99 6 11.98 6 13 C5.65 13.08 5.3 13.16 4.95 13.24 C3.36 13.61 1.77 13.99 0.19 14.38 C-0.36 14.5 -0.91 14.63 -1.47 14.76 C-4.41 15.47 -6.5 16.25 -9 18 C-10.82 18.41 -10.82 18.41 -12.69 18.62 C-13.31 18.7 -13.93 18.77 -14.57 18.85 C-15.04 18.9 -15.52 18.95 -16 19 C-16.99 18.01 -17.98 17.02 -19 16 C-18.34 15.01 -17.68 14.02 -17 13 C-16.67 13.33 -16.34 13.66 -16 14 C-14.35 14 -12.7 14 -11 14 C-10.34 12.35 -9.68 10.7 -9 9 C-8.01 8.34 -7.02 7.68 -6 7 C-6 6.34 -6 5.68 -6 5 C-5.01 5 -4.02 5 -3 5 C-3 4.34 -3 3.68 -3 3 C-2.01 2.01 -1.02 1.02 0 0 Z M-3 7 C-3.33 7.99 -3.66 8.98 -4 10 C-3.67 10.5 -3.67 10.5 -2 13 C-1.34 13 -0.68 13 0 13 C-0.33 11.02 -0.66 9.04 -1 7 C-1.66 7 -2.32 7 -3 7 Z " fill="#000000" transform="translate(480,324)"/><path d="M0 0 C0.99 0.33 1.98 0.66 3 1 C2.01 1.33 1.02 1.66 0 2 C0 1.34 0 0.68 0 0 Z " fill="#000000" transform="translate(653,324)"/><path d="" fill="#000000" transform="translate(0,0)"/><path d="" fill="#000000" transform="translate(0,0)"/><path d="M0 0 C0.66 0.66 1.32 1.32 2 2 C1.67 2.17 1.67 2.17 0 3 C0 2.01 0 1.02 0 0 Z " fill="#000000" transform="translate(766,325)"/><path d="M0 0 C1.32 0 2.64 0 4 0 C4 0.66 4 1.32 4 2 C2.68 1.67 1.36 1.34 0 1 C0 0.67 0 0.34 0 0 Z " fill="#000000" transform="translate(772,326)"/><path d="M0 0 C0.33 0.17 0.33 0.17 2 1 C2 1.66 2 2.32 2 3 C1.34 3 0.68 3 0 3 C0 2.01 0 1.02 0 0 Z " fill="#000000" transform="translate(484,327)"/><path d="" fill="#000000" transform="translate(0,0)"/><path d="M0 0 C0.33 0.99 0.66 1.98 1 3 C2.32 2.67 3.64 2.34 5 2 C5.33 2.33 5.66 2.66 6 3 C8.31 3 10.62 3 13 3 C13.33 3.5 13.33 3.5 15 6 C10.15 8.03 5.45 8.46 0.26 8.89 C-1.71 9.06 -3.66 9.31 -5.62 9.56 C-6.28 9.65 -6.93 9.73 -7.6 9.82 C-8.06 9.88 -8.52 9.94 -9 10 C-8.67 8.35 -8.34 6.7 -8 5 C-7.01 4.67 -6.02 4.34 -5 4 C-5 4.99 -5 5.98 -5 7 C-4.67 5.35 -4.34 3.7 -4 2 C-3.01 2 -2.02 2 -1 2 C-0.67 1.34 -0.34 0.68 0 0 Z M-2 5 C-2 5.66 -2 6.32 -2 7 C-1.34 7 -0.68 7 0 7 C0 6.34 0 5.68 0 5 C-0.66 5 -1.32 5 -2 5 Z " fill="#000000" transform="translate(497,326)"/><path d="" fill="#000000" transform="translate(0,0)"/><path d="" fill="#000000" transform="translate(0,0)"/><path d="M0 0 C0.66 0 1.32 0 2 0 C2 1.98 2 3.96 2 6 C1.34 6.66 0.68 7.32 0 8 C0 5.36 0 2.72 0 0 Z " fill="#000000" transform="translate(376,335)"/><path d="" fill="#000000" transform="translate(0,0)"/><path d="" fill="#000000" transform="translate(0,0)"/><path d="M0 0 C0.33 0.17 0.33 0.17 2 1 C1.67 1.17 1.67 1.17 0 2 C0 1.34 0 0.68 0 0 Z " fill="#000000" transform="translate(454,341)"/><path d="" fill="#000000" transform="translate(0,0)"/><path d="M0 0 C0.33 0.17 0.33 0.17 2 1 C2.33 1.99 2.66 2.98 3 4 C2.01 4.99 1.02 5.98 0 7 C0 4.69 0 2.38 0 0 Z " fill="#000000" transform="translate(354,343)"/><path d="M0 0 C0.66 0.66 1.32 1.32 2 2 C-0.97 2.66 -3.94 3.32 -7 4 C-2.86 0.71 -2.86 0.71 0 0 Z " fill="#000000" transform="translate(438,343)"/><path d="M0 0 C0.33 0.66 0.66 1.32 1 2 C2.65 1.34 4.3 0.68 6 0 C5.5 0.66 5.5 0.66 3 4 C4.98 4 6.96 4 9 4 C9.99 3.01 10.98 2.02 12 1 C12.66 1.99 13.32 2.98 14 4 C14.66 3.01 15.32 2.02 16 1 C16.66 1 17.32 1 18 1 C17.67 2.32 17.34 3.64 17 5 C17.39 4.92 17.78 4.83 18.18 4.75 C23.61 3.76 28.57 4.29 34 5 C33.67 5.66 33.34 6.32 33 7 C30.78 7.57 28.55 8.14 26.33 8.71 C25.57 8.9 24.82 9.1 24.06 9.29 C22.97 9.57 21.88 9.85 20.79 10.12 C20.46 10.21 20.12 10.3 19.78 10.39 C17.81 10.88 16.03 11.09 14 11 C14 10.34 14 9.68 14 9 C9.05 9 4.1 9 -1 9 C-1.33 8.01 -1.66 7.02 -2 6 C-2.66 6 -3.32 6 -4 6 C-4 5.34 -4 4.68 -4 4 C-2.68 2.68 -1.36 1.36 0 0 Z " fill="#000000" transform="translate(378,345)"/><path d="M0 0 C0.29 0.15 0.29 0.15 1.75 0.94 C3.8 1.97 5.76 2.52 8 3 C8 2.34 8 1.68 8 1 C9.32 1.33 10.64 1.66 12 2 C12.33 2.99 12.66 3.98 13 5 C8.38 5 3.76 5 -1 5 C-0.67 3.35 -0.34 1.7 0 0 Z " fill="#000000" transform="translate(351,349)"/><path d="M0 0 C1.98 0 3.96 0 6 0 C6.33 0.99 6.66 1.98 7 3 C4.69 3 2.38 3 0 3 C0 2.01 0 1.02 0 0 Z " fill="#000000" transform="translate(332,351)"/><path d="M0 0 C1.65 0.99 3.3 1.98 5 3 C2.69 3.9 0.79 4.11 -1.69 4.06 C-2.31 4.05 -2.93 4.04 -3.57 4.04 C-3.81 4.03 -3.81 4.03 -5 4 C-5 3.01 -5 2.02 -5 1 C-3.35 0.67 -1.7 0.34 0 0 Z " fill="#000000" transform="translate(371,350)"/><path d="M0 0 C0.66 0.33 1.32 0.66 2 1 C1.01 1 0.02 1 -1 1 C-0.67 0.67 -0.34 0.34 0 0 Z " fill="#000000" transform="translate(348,352)"/><path d="" fill="#000000" transform="translate(0,0)"/><path d="M0 0 C2 1 2 1 2 1 Z " fill="#000000" transform="translate(630,407)"/><path d="M0 0 C4 1 4 1 4 1 Z " fill="#000000" transform="translate(663,407)"/><path d="M0 0 C4 1 4 1 4 1 Z " fill="#000000" transform="translate(699,407)"/><path d="" fill="#000000" transform="translate(0,0)"/><path d="M0 0 C2 1 2 1 2 1 Z " fill="#000000" transform="translate(727,407)"/><path d="M0 0 C3 1 3 1 3 1 Z " fill="#000000" transform="translate(747,407)"/><path d="M0 0 C3 1 3 1 3 1 Z " fill="#000000" transform="translate(764,407)"/><path d="M0 0 C2 1 2 1 2 1 Z " fill="#000000" transform="translate(775,407)"/><path d="M0 0 C4 1 4 1 4 1 Z " fill="#000000" transform="translate(790,407)"/><path d="" fill="#000000" transform="translate(0,0)"/>
  </g>

  <!-- 4. Interactive Antigravity Telemetry Nodes & Cyber Sensors -->
  <g class="svg-cyber-layer">
    <!-- Active Gold Data Nodes on Circuits -->
    <g class="svg-telemetry-node" data-node="alpha" style="transform-origin: 334px 62px;">
      <rect x="330" y="58" width="9" height="9" fill="#e7ac43" stroke="#172724" stroke-width="1.2" rx="1.5" />
      <circle cx="334.5" cy="62.5" r="2" fill="#172724" />
    </g>

    <g class="svg-telemetry-node" data-node="beta" style="transform-origin: 334px 201px;">
      <circle class="svg-pulse-ring" cx="334.5" cy="201" r="10" fill="none" stroke="#e7ac43" stroke-width="1" opacity="0.6" />
      <circle cx="334.5" cy="201" r="5" fill="#e7ac43" stroke="#172724" stroke-width="1.2" />
    </g>

    <g class="svg-telemetry-node" data-node="gamma" style="transform-origin: 272px 245px;">
      <circle class="svg-pulse-ring" cx="272" cy="245" r="8" fill="none" stroke="#e7ac43" stroke-width="1" opacity="0.5" />
      <circle cx="272" cy="245" r="4.5" fill="#e7ac43" stroke="#172724" stroke-width="1.2" />
    </g>

    <g class="svg-telemetry-node" data-node="delta" style="transform-origin: 670px 115px;">
      <circle class="svg-pulse-ring" cx="670" cy="115" r="8" fill="none" stroke="#e7ac43" stroke-width="1" opacity="0.6" />
      <circle cx="670" cy="115" r="4.5" fill="#e7ac43" stroke="#172724" stroke-width="1.2" />
    </g>

    <g class="svg-telemetry-node" data-node="epsilon" style="transform-origin: 785px 99px;">
      <rect x="782" y="96" width="7" height="7" fill="#e7ac43" stroke="#172724" stroke-width="1" rx="1" />
    </g>

    <g class="svg-telemetry-node" data-node="zeta" style="transform-origin: 868px 145px;">
      <circle class="svg-pulse-ring" cx="868" cy="145" r="8" fill="none" stroke="#e7ac43" stroke-width="1" opacity="0.6" />
      <circle cx="868" cy="145" r="4" fill="#e7ac43" stroke="#172724" stroke-width="1.2" />
    </g>
  </g>
</svg>
